# xmcd
#
# Track frame offsets:
#	150
#	19482
#	30157
#	43010
#	56090
#	67937
#	82570
#	95200
#	106712
#	121312
#
# Disc length: 1802 seconds
#
# Revision: 1
# Processed by: cddbd v1.5.1PL0 Copyright (c) Steve Scherf et al.
# Submitted via: audiograbber 1.83.01
#
DISCID=7307080a
DTITLE=Various Artist - The Sounds of Texas
DYEAR=1900
DGENRE=
TTITLE0=Bob Wills - San Antonio Rose
TTITLE1=HankThompon - Pick Me Up on Your Way Down
TTITLE2=Asleep At The Wheel - (Get Your Kicks on) Route 66
TTITLE3=Bob Wills - Bubbles in My Beer
TTITLE4=Hank Thompson - Beer Barrel Polka
TTITLE5=Asleep At The Wheel - The Letter That Johnny Walker Read
TTITLE6=Bob Wills - Right or Wrong
TTITLE7=Hank Thompson - Shot-Gun Boogie
TTITLE8=Asleep At The Wheel - Bump Bounce Boogie
TTITLE9=Bob Wills - Stay All Night (Stay a Little Longer)
EXTD=Capitol Nashville\nCDP 7 95850 2
EXTT0=Bob Wills
EXTT1=Hank Thompson
EXTT2=Asleep at the Wheel
EXTT3=Bob Wills
EXTT4=Hank Thompson
EXTT5=Asleep at the Wheel
EXTT6=Bob Wills
EXTT7=Hank Thompson
EXTT8=Asleep at the Wheel
EXTT9=Bob Wills
PLAYORDER=
